<?xml version="1.0" encoding="utf-8"?>
<!-- Generator: Adobe Illustrator 17.0.0, SVG Export Plug-In . SVG Version: 6.00 Build 0)  -->
<!DOCTYPE svg PUBLIC "-//W3C//DTD SVG 1.1//EN" "http://www.w3.org/Graphics/SVG/1.1/DTD/svg11.dtd">
<svg version="1.1" id="Layer_1" xmlns="http://www.w3.org/2000/svg" xmlns:xlink="http://www.w3.org/1999/xlink" x="0px" y="0px"
	 width="857px" height="137px" viewBox="0 0 857 137" enable-background="new 0 0 857 137" xml:space="preserve">
<rect x="174.54" y="109.74" transform="matrix(0.9995 -0.0305 0.0305 0.9995 -3.5845 8.1437)" fill="#FFFFFF" width="181.5" height="23.781"/>
<rect x="753.436" y="107.337" transform="matrix(0.9999 0.0101 -0.0101 0.9999 1.2492 -7.9951)" fill="#FFFFFF" width="71.669" height="23.781"/>
<g>
	<g>
		<g>
			<path d="M28.224,102.718c-0.172,2.756-0.861,3.445-3.789,3.445h-6.201c-14.123,0-17.568-5.856-17.568-16.362
				c0-7.062,1.55-22.736,5.167-73.372c0.172-2.756,0.344-3.961,0.861-4.479c0.517-0.517,1.206-0.517,2.756-0.517h6.717
				c13.607,0,17.224,6.717,17.74,14.123c6.717-12.4,14.984-15.845,26.352-15.845c12.401,0,23.424,4.133,26.007,17.74
				c7.234-13.435,14.812-17.74,27.73-17.74c14.467,0,26.696,5.339,26.696,24.284c0,14.123-3.1,43.403-4.65,66.827
				c-0.345,4.994-0.689,5.339-4.65,5.339h-5.512c-14.468,0-17.74-5.511-17.74-15.156c0-9.301,3.617-42.542,3.617-46.848
				c0-5.855-1.895-11.367-8.784-11.367c-11.884,0-17.224,16.707-18.774,38.581c-0.517,7.061-1.205,15.845-2.067,29.452
				c-0.344,4.994-0.689,5.339-4.65,5.339h-5.511c-14.468,0-17.74-5.511-17.74-15.156c0-9.129,3.617-38.925,3.617-46.848
				c0-5.855-1.895-11.367-8.784-11.367c-12.228,0-17.051,19.634-18.601,42.37C29.775,85.666,28.741,95.656,28.224,102.718z"/>
			<path d="M183.784,66.795c0.124-1.727,0.247-2.838,0.247-4.566c0-5.307-1.481-8.639-7.652-8.639c-6.911,0-8.021,4.072-9.502,9.996
				c-0.37,1.481-1.358,1.727-3.826,1.727c-8.392,0-12.588-2.962-12.588-9.502c0-10.367,9.379-18.758,28.26-18.758
				c18.265,0,26.04,7.898,26.04,21.72c0,3.702-2.098,20.733-2.098,24.435c0,8.269,7.281,5.554,7.281,8.145
				c0,7.282-3.456,16.044-14.809,16.044c-7.898,0-11.6-4.073-12.835-10.737c-3.949,5.677-9.872,10.737-20.115,10.737
				c-9.873,0-17.894-4.443-17.894-16.413C144.293,76.297,157.992,67.412,183.784,66.795z M165.52,85.924
				c0,3.825,2.962,5.06,5.677,5.06c5.306,0,10.737-4.69,11.477-14.069C174.035,76.914,165.52,79.383,165.52,85.924z"/>
			<path d="M260.914,107.397c-8.763,0-17.401-12.465-26.163-28.754c-0.617,8.639-1.358,17.277-1.975,25.052
				c-0.123,1.974-0.616,2.468-2.714,2.468h-4.443c-10.243,0-12.587-4.196-12.587-12.094c0-6.047,1.358-9.749,5.429-75.649
				c0.124-1.975,0.247-2.838,0.617-3.209c0.371-0.37,0.865-0.37,1.975-0.37h4.813c10.119,0,12.835,5.06,12.835,10.737
				c0,3.208-0.988,16.043-2.098,31.345l19.745-18.018c1.481-1.358,2.838-1.727,3.456-1.727c3.579,0,9.256,10.49,9.256,14.315
				c0,4.689-7.775,9.873-23.077,16.414c13.822,15.302,25.792,26.285,25.792,28.26C271.774,97.893,268.442,107.397,260.914,107.397z"
				/>
			<path d="M288.064,106.162c-10.119,0-12.588-4.196-12.588-11.723c0-5.06,1.111-16.29,3.702-52.573
				c0.124-1.974,0.247-2.838,0.617-3.208c0.371-0.371,0.864-0.371,1.975-0.371h4.813c10.119,0,12.587,4.196,12.587,11.23
				c0,4.813-1.11,18.758-3.949,54.177c-0.123,1.974-0.617,2.468-2.715,2.468H288.064z M292.506,13.112
				c7.034,0,10.119,3.086,10.119,7.898c0,6.048-4.689,10.613-13.328,10.613c-6.54,0-9.995-2.591-9.995-7.898
				C279.302,17.185,284.485,13.112,292.506,13.112z"/>
			<path d="M350.384,61.858c0-4.319-1.604-8.268-7.527-8.268c-11.354,0-14.562,9.256-17.4,50.104
				c-0.124,1.974-0.617,2.468-2.715,2.468h-4.443c-10.12,0-12.588-4.196-12.588-11.723c0-5.06,1.111-16.29,3.702-52.573
				c0.123-1.974,0.247-2.838,0.617-3.208c0.371-0.371,0.864-0.371,1.975-0.371h4.813c9.872,0,12.464,4.936,12.834,10.367
				c5.184-8.762,11.23-11.6,21.103-11.6c13.822,0,20.362,5.553,20.362,22.337c0,8.021-3.332,38.75-3.332,42.946
				c0,3.579-0.493,3.825-3.331,3.825h-3.95c-10.366,0-12.71-3.949-12.71-10.86C347.793,88.145,350.384,70.004,350.384,61.858z"/>
			<path d="M399.5,102.46c-13.575,0-22.707-8.515-22.707-27.89c0-15.796,5.677-37.516,29.247-37.516
				c9.75,0,14.069,4.443,15.796,10.119c0.124,0.247,0.371-6.664,0.494-7.652c0.123-0.987,0.617-1.234,1.604-1.234h5.677
				c8.515,0,12.217,2.838,12.217,12.711c0,4.196-1.851,40.479-5.43,57.262c-2.345,11.106-10.244,21.967-33.321,21.967
				c-17.277,0-26.039-7.405-26.039-14.315c0-6.294,6.047-9.133,10.737-9.133c5.677,0,3.208,8.021,15.673,8.021
				c10.86,0,14.685-8.392,14.685-23.2C414.063,98.881,408.262,102.46,399.5,102.46z M420.727,67.166
				c0-9.873-3.085-13.698-9.132-13.698c-12.094,0-13.081,15.426-13.081,20.362c0,8.145,2.592,12.217,9.256,12.217
				C419.492,86.047,420.727,73.335,420.727,67.166z"/>
			<path d="M517.025,76.022c2.412,0,3.961,1.894,3.961,5.167c0,3.1-3.273,12.746-5.511,15.329
				c-2.067,2.412-12.057,11.367-27.902,11.367c-17.396,0-39.27-9.472-39.27-43.058c0-17.74,6.029-55.115,47.364-55.115
				c22.39,0,32.552,11.023,32.552,24.802c0,12.4-8.267,18.084-22.39,18.084c-3.445,0-4.478-0.344-4.478-2.411
				c-0.172-11.195-0.172-17.568-7.923-17.568c-14.296,0-15.846,21.357-15.846,30.485c0,16.363,4.995,21.874,16.191,21.874
				C507.208,84.977,513.064,76.022,517.025,76.022z"/>
			<path d="M528.357,76.545c0-19.869,8.762-39.491,37.023-39.491c20.732,0,29.001,10.613,29.001,28.877
				c0,15.55-5.923,41.465-36.899,41.465C534.898,107.397,528.357,93.698,528.357,76.545z M549.336,75.187
				c0,10.86,3.579,15.796,9.996,15.796c11.6,0,14.069-16.66,14.069-24.312c0-8.145-2.838-13.204-10.119-13.204
				C550.817,53.467,549.336,68.152,549.336,75.187z"/>
			<path d="M619.063,103.695c-0.124,1.974-0.617,2.468-2.715,2.468h-4.443c-10.12,0-12.588-4.196-12.588-11.723
				c0-5.06,1.111-16.29,3.702-52.573c0.123-1.974,0.247-2.838,0.617-3.208c0.371-0.371,0.864-0.371,1.975-0.371h4.813
				c9.749,0,12.341,4.813,12.71,10.12c4.813-8.886,10.737-11.354,18.882-11.354c8.885,0,16.783,2.962,18.634,12.71
				c5.184-9.625,10.613-12.71,19.869-12.71c10.367,0,19.129,3.825,19.129,17.4c0,10.119-2.221,31.099-3.332,47.883
				c-0.247,3.579-0.494,3.825-3.331,3.825h-3.949c-10.366,0-12.711-3.949-12.711-10.86c0-6.664,2.592-30.482,2.592-33.567
				c0-4.196-1.358-8.145-6.294-8.145c-8.515,0-12.341,11.97-13.452,27.643c-0.37,5.06-0.864,11.354-1.481,21.103
				c-0.247,3.579-0.493,3.825-3.331,3.825h-3.95c-10.366,0-12.711-3.949-12.711-10.86c0-6.541,2.592-27.891,2.592-33.567
				c0-4.196-1.358-8.145-6.294-8.145c-8.762,0-12.217,14.068-13.328,30.358C620.173,91.477,619.433,98.635,619.063,103.695z"/>
			<path d="M719.024,106.162c-10.119,0-12.588-4.196-12.588-11.723c0-5.06,1.111-16.29,3.702-52.573
				c0.124-1.974,0.247-2.838,0.617-3.208c0.371-0.371,0.864-0.371,1.975-0.371h4.813c10.119,0,12.587,4.196,12.587,11.23
				c0,4.813-1.11,18.758-3.949,54.177c-0.123,1.974-0.617,2.468-2.715,2.468H719.024z M723.467,13.112
				c7.034,0,10.119,3.086,10.119,7.898c0,6.048-4.69,10.613-13.328,10.613c-6.541,0-9.995-2.591-9.995-7.898
				C710.263,17.185,715.446,13.112,723.467,13.112z"/>
			<path d="M784.431,84.566c1.727,0,2.838,1.358,2.838,3.702c0,2.221-2.345,9.132-3.95,10.983
				c-1.481,1.728-8.639,8.146-19.992,8.146c-12.464,0-28.137-6.788-28.137-30.852c0-12.711,4.319-39.491,33.937-39.491
				c16.044,0,23.325,7.898,23.325,17.771c0,8.885-5.924,12.958-16.044,12.958c-2.468,0-3.208-0.247-3.208-1.728
				c-0.123-8.021-0.123-12.587-5.677-12.587c-10.243,0-11.354,15.302-11.354,21.843c0,11.723,3.579,15.673,11.6,15.673
				C777.396,90.983,781.592,84.566,784.431,84.566z"/>
			<path d="M844.16,51.739c0,7.158-4.689,11.107-13.204,11.107c-2.345,0-2.962-0.371-2.962-1.728
				c-0.123-2.962-0.371-8.268-7.158-8.268c-4.566,0-7.652,2.468-7.652,5.8c0,10.243,29.371,6.417,29.371,28.508
				c0,11.847-8.515,20.239-25.175,20.239c-9.256,0-26.162-2.592-26.162-10.367c0-2.838,2.345-9.379,7.158-9.379
				c4.072,0,5.429,4.567,16.289,4.567c4.073,0,7.898-0.617,7.898-4.073c0-9.379-27.026-5.306-27.026-28.26
				c0-16.907,14.685-22.831,28.26-22.831C837.62,37.054,844.16,43.224,844.16,51.739z"/>
		</g>
		<g>
			<path fill="#FFFFFF" stroke="#000000" stroke-width="4" stroke-miterlimit="10" d="M38.316,96.31
				c-0.172,2.756-0.861,3.445-3.789,3.445h-6.201c-14.123,0-17.568-5.856-17.568-16.362c0-7.062,1.55-22.736,5.167-73.372
				c0.172-2.756,0.344-3.961,0.861-4.479c0.517-0.517,1.206-0.517,2.756-0.517h6.717c13.607,0,17.224,6.717,17.74,14.123
				c6.717-12.4,14.984-15.845,26.352-15.845c12.401,0,23.424,4.133,26.007,17.74c7.234-13.435,14.812-17.74,27.73-17.74
				c14.467,0,26.696,5.339,26.696,24.284c0,14.123-3.1,43.403-4.65,66.827c-0.345,4.994-0.689,5.339-4.65,5.339h-5.512
				c-14.468,0-17.74-5.511-17.74-15.156c0-9.301,3.617-42.542,3.617-46.848c0-5.855-1.895-11.367-8.784-11.367
				c-11.884,0-17.224,16.707-18.774,38.581c-0.517,7.061-1.205,15.845-2.067,29.452c-0.344,4.994-0.689,5.339-4.65,5.339h-5.512
				c-14.468,0-17.74-5.511-17.74-15.156c0-9.129,3.617-38.925,3.617-46.848c0-5.855-1.895-11.367-8.784-11.367
				c-12.228,0-17.051,19.634-18.601,42.37C39.866,79.259,38.832,89.249,38.316,96.31z"/>
			<path fill="#FFFFFF" stroke="#000000" stroke-width="4" stroke-miterlimit="10" d="M193.875,60.388
				c0.124-1.727,0.247-2.838,0.247-4.566c0-5.307-1.481-8.639-7.652-8.639c-6.911,0-8.021,4.072-9.502,9.996
				c-0.37,1.481-1.358,1.727-3.826,1.727c-8.392,0-12.588-2.962-12.588-9.502c0-10.367,9.379-18.758,28.26-18.758
				c18.265,0,26.04,7.898,26.04,21.72c0,3.702-2.098,20.733-2.098,24.435c0,8.269,7.281,5.554,7.281,8.145
				c0,7.282-3.456,16.044-14.809,16.044c-7.898,0-11.6-4.073-12.835-10.737c-3.949,5.677-9.872,10.737-20.115,10.737
				c-9.873,0-17.894-4.443-17.894-16.413C154.385,69.89,168.083,61.005,193.875,60.388z M175.611,79.516
				c0,3.825,2.962,5.06,5.677,5.06c5.306,0,10.737-4.69,11.477-14.069C184.126,70.507,175.611,72.976,175.611,79.516z"/>
			<path fill="#FFFFFF" stroke="#000000" stroke-width="4" stroke-miterlimit="10" d="M271.006,100.989
				c-8.763,0-17.401-12.465-26.163-28.754c-0.617,8.639-1.358,17.277-1.975,25.052c-0.123,1.974-0.616,2.468-2.714,2.468h-4.443
				c-10.243,0-12.587-4.196-12.587-12.094c0-6.047,1.358-9.749,5.429-75.649c0.124-1.975,0.247-2.838,0.617-3.209
				c0.371-0.37,0.865-0.37,1.975-0.37h4.813c10.119,0,12.835,5.06,12.835,10.737c0,3.208-0.988,16.043-2.098,31.345l19.745-18.018
				c1.481-1.358,2.838-1.727,3.456-1.727c3.579,0,9.256,10.49,9.256,14.315c0,4.689-7.775,9.873-23.077,16.414
				c13.822,15.302,25.792,26.285,25.792,28.26C281.866,91.486,278.533,100.989,271.006,100.989z"/>
			<path fill="#FFFFFF" stroke="#000000" stroke-width="4" stroke-miterlimit="10" d="M298.155,99.755
				c-10.119,0-12.588-4.196-12.588-11.723c0-5.06,1.111-16.29,3.702-52.573c0.124-1.974,0.247-2.838,0.617-3.208
				c0.371-0.371,0.864-0.371,1.975-0.371h4.813c10.119,0,12.587,4.196,12.587,11.23c0,4.813-1.11,18.758-3.949,54.177
				c-0.123,1.974-0.617,2.468-2.715,2.468H298.155z M302.597,6.705c7.034,0,10.119,3.086,10.119,7.898
				c0,6.048-4.689,10.613-13.329,10.613c-6.54,0-9.995-2.591-9.995-7.898C289.393,10.778,294.576,6.705,302.597,6.705z"/>
			<path fill="#FFFFFF" stroke="#000000" stroke-width="4" stroke-miterlimit="10" d="M360.475,55.451
				c0-4.319-1.604-8.268-7.527-8.268c-11.354,0-14.562,9.256-17.4,50.104c-0.124,1.974-0.617,2.468-2.715,2.468h-4.443
				c-10.12,0-12.588-4.196-12.588-11.723c0-5.06,1.111-16.29,3.702-52.573c0.123-1.974,0.247-2.838,0.617-3.208
				c0.371-0.371,0.864-0.371,1.975-0.371h4.813c9.872,0,12.464,4.936,12.834,10.367c5.184-8.762,11.231-11.6,21.103-11.6
				c13.822,0,20.362,5.553,20.362,22.337c0,8.021-3.332,38.75-3.332,42.946c0,3.579-0.493,3.825-3.331,3.825h-3.95
				c-10.366,0-12.71-3.949-12.71-10.86C357.884,81.737,360.475,63.597,360.475,55.451z"/>
			<path fill="#FFFFFF" stroke="#000000" stroke-width="4" stroke-miterlimit="10" d="M409.591,96.053
				c-13.575,0-22.707-8.515-22.707-27.89c0-15.796,5.677-37.516,29.247-37.516c9.75,0,14.069,4.443,15.796,10.119
				c0.124,0.247,0.371-6.664,0.494-7.652c0.123-0.987,0.617-1.234,1.604-1.234h5.677c8.515,0,12.217,2.838,12.217,12.711
				c0,4.196-1.851,40.479-5.43,57.262c-2.345,11.106-10.244,21.967-33.321,21.967c-17.277,0-26.039-7.405-26.039-14.315
				c0-6.294,6.047-9.133,10.737-9.133c5.677,0,3.208,8.021,15.673,8.021c10.86,0,14.685-8.392,14.685-23.2
				C424.154,92.474,418.353,96.053,409.591,96.053z M430.818,60.758c0-9.873-3.085-13.698-9.133-13.698
				c-12.094,0-13.081,15.426-13.081,20.362c0,8.145,2.592,12.217,9.256,12.217C429.584,79.639,430.818,66.928,430.818,60.758z"/>
			<path fill="#FFFFFF" stroke="#000000" stroke-width="4" stroke-miterlimit="10" d="M527.116,69.614
				c2.412,0,3.961,1.894,3.961,5.167c0,3.1-3.273,12.746-5.511,15.329c-2.067,2.412-12.057,11.367-27.902,11.367
				c-17.396,0-39.27-9.472-39.27-43.058c0-17.74,6.029-55.115,47.364-55.115c22.39,0,32.552,11.023,32.552,24.802
				c0,12.401-8.267,18.084-22.39,18.084c-3.445,0-4.478-0.344-4.478-2.411c-0.172-11.195-0.172-17.568-7.923-17.568
				c-14.295,0-15.846,21.357-15.846,30.485c0,16.363,4.995,21.874,16.19,21.874C517.299,78.57,523.155,69.614,527.116,69.614z"/>
			<path fill="#FFFFFF" stroke="#000000" stroke-width="4" stroke-miterlimit="10" d="M538.448,70.137
				c0-19.869,8.762-39.491,37.023-39.491c20.732,0,29.001,10.613,29.001,28.877c0,15.55-5.923,41.465-36.899,41.465
				C544.989,100.989,538.448,87.291,538.448,70.137z M559.428,68.78c0,10.86,3.579,15.796,9.996,15.796
				c11.6,0,14.069-16.66,14.069-24.312c0-8.145-2.838-13.204-10.119-13.204C560.909,47.06,559.428,61.745,559.428,68.78z"/>
			<path fill="#FFFFFF" stroke="#000000" stroke-width="4" stroke-miterlimit="10" d="M629.154,97.287
				c-0.124,1.974-0.617,2.468-2.715,2.468h-4.443c-10.12,0-12.588-4.196-12.588-11.723c0-5.06,1.111-16.29,3.702-52.573
				c0.123-1.974,0.247-2.838,0.617-3.208c0.371-0.371,0.864-0.371,1.975-0.371h4.813c9.749,0,12.341,4.813,12.71,10.12
				c4.813-8.886,10.737-11.354,18.882-11.354c8.885,0,16.783,2.962,18.634,12.71c5.184-9.625,10.613-12.71,19.869-12.71
				c10.367,0,19.129,3.825,19.129,17.4c0,10.119-2.221,31.099-3.332,47.883c-0.246,3.579-0.494,3.825-3.331,3.825h-3.95
				c-10.366,0-12.711-3.949-12.711-10.86c0-6.664,2.592-30.482,2.592-33.567c0-4.196-1.358-8.145-6.294-8.145
				c-8.515,0-12.341,11.97-13.452,27.643c-0.37,5.06-0.864,11.354-1.481,21.103c-0.246,3.579-0.493,3.825-3.331,3.825h-3.95
				c-10.366,0-12.711-3.949-12.711-10.86c0-6.541,2.592-27.891,2.592-33.567c0-4.196-1.358-8.145-6.294-8.145
				c-8.762,0-12.217,14.068-13.328,30.358C630.264,85.07,629.524,92.228,629.154,97.287z"/>
			<path fill="#FFFFFF" stroke="#000000" stroke-width="4" stroke-miterlimit="10" d="M729.116,99.755
				c-10.119,0-12.588-4.196-12.588-11.723c0-5.06,1.111-16.29,3.702-52.573c0.124-1.974,0.247-2.838,0.617-3.208
				c0.371-0.371,0.864-0.371,1.975-0.371h4.813c10.119,0,12.587,4.196,12.587,11.23c0,4.813-1.11,18.758-3.949,54.177
				c-0.123,1.974-0.617,2.468-2.715,2.468H729.116z M733.558,6.705c7.034,0,10.119,3.086,10.119,7.898
				c0,6.048-4.69,10.613-13.328,10.613c-6.54,0-9.995-2.591-9.995-7.898C720.354,10.778,725.537,6.705,733.558,6.705z"/>
			<path fill="#FFFFFF" stroke="#000000" stroke-width="4" stroke-miterlimit="10" d="M794.522,78.159
				c1.727,0,2.838,1.358,2.838,3.702c0,2.221-2.345,9.132-3.95,10.983c-1.481,1.728-8.638,8.146-19.992,8.146
				c-12.464,0-28.137-6.788-28.137-30.852c0-12.711,4.319-39.491,33.937-39.491c16.044,0,23.325,7.898,23.325,17.771
				c0,8.885-5.924,12.958-16.044,12.958c-2.468,0-3.208-0.247-3.208-1.728c-0.123-8.021-0.123-12.587-5.677-12.587
				c-10.243,0-11.354,15.302-11.354,21.843c0,11.723,3.579,15.673,11.6,15.673C787.487,84.576,791.684,78.159,794.522,78.159z"/>
			<path fill="#FFFFFF" stroke="#000000" stroke-width="4" stroke-miterlimit="10" d="M854.251,45.332
				c0,7.158-4.689,11.107-13.204,11.107c-2.345,0-2.962-0.371-2.962-1.728c-0.123-2.962-0.371-8.268-7.158-8.268
				c-4.566,0-7.652,2.468-7.652,5.8c0,10.243,29.371,6.417,29.371,28.508c0,11.847-8.515,20.239-25.175,20.239
				c-9.256,0-26.162-2.592-26.162-10.367c0-2.838,2.344-9.379,7.158-9.379c4.072,0,5.429,4.567,16.289,4.567
				c4.073,0,7.898-0.617,7.898-4.073c0-9.379-27.026-5.306-27.026-28.26c0-16.907,14.685-22.831,28.26-22.831
				C847.711,30.647,854.251,36.816,854.251,45.332z"/>
		</g>
	</g>
	<g>
		<path d="M757.959,127.055l0.061-1.923l-0.122-0.453l0.122-0.366v-1.566l-0.134-0.381l0.134-0.379v-1.566l-0.122-0.442l0.122-0.366
			v-1.517l-0.122-0.466l0.122-0.343v-1.566l-0.122-0.442l0.122-0.366v-1.568l-0.134-0.379l0.085-0.232l0.062-1.715l0.122-0.134
			h1.432l0.318,0.074l0.38-0.123l0.391,0.16l1.089,0.221l1.04,0.526l0.282,0.219l0.477,0.283l0.882,1.002l0.44,1.04l0.061,0.332
			l0.295,0.77l0.134,1.04l0.086,0.379v0.527l0.049,0.906v0.66l0.085,0.479l-0.085,1.419l-0.049,0.281v0.576l-0.086,0.232
			l-0.098,0.906l-0.147,0.379l-0.135,0.564l-0.196,0.379l-0.061,0.196l-0.122,0.183l-0.196,0.332l-0.233,0.294l-0.171,0.268
			l-0.551,0.489l-0.232,0.234l-0.38,0.183l-0.331,0.245l-0.612,0.232l-0.489,0.208l-0.698,0.074l-0.429,0.147h-0.856l-0.233,0.06
			l-1.138-0.109L757.959,127.055z M760.541,124.361l0.478-0.062l0.171-0.085l0.318-0.123l0.441-0.391l0.147-0.294l0.196-0.281
			l0.036-0.098l0.196-0.281l0.049-0.527l0.135-0.257l0.098-1.064l0.049-0.343l-0.086-0.502l0.135-0.208v-1.602l-0.171-0.515
			l0.147-0.294l-0.073-0.294l-0.245-1.542l-0.269-0.538l-0.049-0.147l-0.147-0.281l-0.527-0.527l-0.576-0.404l-0.465-0.073v0.905
			l-0.073,0.246l0.073,0.33v1.751l-0.073,0.232l0.073,0.391v1.751l-0.073,0.245l0.073,0.317v1.764l-0.073,0.232l0.073,0.379v1.764
			l-0.049,0.134v0.245L760.541,124.361z"/>
		<path d="M769.794,126.967l-0.514-0.17l-0.612-0.453l-0.759-0.845l-0.391-0.672l-0.098-0.234l-0.233-0.477v-0.281l-0.305-0.906
			l-0.073-0.466v-0.526l-0.049-0.147l-0.098-1.187v-1.898l0.049-0.281v-0.808l0.098-0.281l0.049-0.477l0.036-0.234l0.098-0.807
			l0.245-0.576v-0.464l0.233-0.295l0.073-0.428l0.587-1.089l0.49-0.711l0.844-0.758l1.04-0.515l0.564-0.098h0.294l0.305-0.16
			l0.453,0.16l0.661,0.098l0.575,0.283l0.514,0.477l0.368,0.281l0.489,0.808l0.147,0.281l0.232,0.404l0.099,0.355l0.085,0.281
			l0.062,0.391l0.281,0.613v0.428l0.086,0.283l0.049,0.379l0.049,0.281l0.049,0.576l0.147,0.843v1.189l-0.049,0.758v0.662
			l-0.098,0.477l-0.049,0.381l-0.098,0.33l-0.049,0.575l-0.135,0.355v0.306l-0.098,0.245l-0.061,0.343l-0.221,0.33l-0.061,0.453
			l-0.22,0.343l-0.318,0.613l-0.355,0.428l-0.134,0.185l-0.478,0.477l-0.282,0.196l-0.281,0.219l-0.478,0.208l-0.343,0.038
			l-0.466,0.196h-0.428l-0.318-0.062l-0.306,0.073l-0.563-0.158L769.794,126.967z M771.177,124.483l0.514-0.121l0.159-0.232
			l0.343-0.196l0.135-0.393l0.196-0.268l0.061-0.196l0.098-0.232l0.147-0.625l0.184-0.698v-0.624l0.147-0.428v-1.996l0.049-0.232
			l-0.049-0.245l-0.098-1.372l-0.134-0.428v-0.379l-0.441-1.336l-0.232-0.33l-0.429-0.428h-0.612l-0.38,0.196l-0.098,0.183
			l-0.38,0.379l-0.049,0.198l-0.318,0.647l-0.379,1.457l-0.062,0.649l-0.147,0.219l0.085,0.466l-0.122,0.783v0.808l-0.049,0.257
			l0.098,0.355l0.049,1.126l0.135,0.538v0.515l0.416,0.917l0.404,0.685l0.318,0.232L771.177,124.483z"/>
		<path d="M779.058,126.846v-1.187l-0.049-0.343l0.049-0.845v-1.187l-0.061-0.294l0.061-0.845v-1.187l-0.049-0.343l0.049-0.796
			v-1.236l-0.061-0.294l0.061-0.845v-1.176l-0.049-0.343l0.049-0.796v-1.285l-0.098-0.33h-0.563l-0.33-0.062l-0.429,0.062
			l-0.575-0.074l-0.343,0.111l-0.465-0.16l-0.086-0.17l0.049-2.338l0.147-0.073l1.102-0.098l0.649,0.049h0.612l0.294,0.049
			l0.465-0.098h0.429l0.526,0.049h0.661l0.281,0.049l0.478-0.098h0.38l0.575,0.049h0.612l0.281,0.049l0.246-0.049h0.563l0.196,0.183
			v2.325l-0.196,0.196h-0.478l-0.134,0.049h-0.808l-0.33-0.062l-0.453,0.062l-0.453-0.062v1.677l-0.049,0.208l0.062,2.142
			l-0.062,0.232l0.062,2.094l-0.062,0.232l0.062,2.13l-0.062,0.232l0.062,2.094l-0.062,0.232l0.062,2.07l-0.122,0.232l-0.319,0.098
			h-1.088l-0.233,0.049h-0.576l-0.343-0.085L779.058,126.846z"/>
		<path d="M792.743,126.748l-0.796-0.502l-0.331-0.453l-0.832-1.089l-0.122-0.343l-0.233-0.515l-0.453-1.419l-0.159-0.808
			l-0.049-0.33l-0.098-0.294v-0.428l-0.049-0.332v-1.847l0.281-2.081l0.147-0.294l0.073-0.54l0.257-0.598l0.098-0.381l0.233-0.477
			l0.196-0.33l0.281-0.564l0.527-0.623l0.135-0.185l0.477-0.477l0.282-0.183l0.575-0.453l0.428-0.123l0.711-0.232h0.661l0.404-0.134
			l0.452,0.183l0.661,0.085l0.477,0.196l0.208,0.074l0.171,0.159v0.428l-0.269,0.538l-0.086,0.404l-0.22,0.44l-0.049,0.319
			l-0.183,0.245l-0.135,0.196h-0.147l-0.636-0.319l-0.587-0.072l-0.441,0.147l-0.269,0.072l-0.183,0.294l-0.343,0.123l-0.148,0.379
			l-0.281,0.183l-0.073,0.44l-0.282,0.283l-0.269,1.077l-0.196,0.564l-0.049,0.623l-0.037,0.134l-0.098,1.236v1.666l0.135,0.562
			l0.049,0.43l0.049,0.147l0.196,0.66l0.294,0.6l0.759,0.955l0.392,0.183l0.661,0.074l1.163-0.576h0.257l0.367,0.613l0.183,0.502
			l0.319,0.44l0.061,0.196l0.16,0.392l-0.086,0.183l-0.22,0.136l-0.44,0.392l-0.429,0.219l-0.624,0.123l-0.403,0.196l-0.429-0.085
			l-0.367,0.098l-0.722-0.123L792.743,126.748z"/>
		<path d="M800.465,126.967l-0.514-0.17l-0.612-0.453l-0.759-0.845l-0.392-0.672l-0.098-0.234l-0.233-0.477v-0.281l-0.305-0.906
			l-0.073-0.466v-0.526l-0.049-0.147l-0.098-1.187v-1.898l0.049-0.281v-0.808l0.098-0.281l0.049-0.477l0.036-0.234l0.098-0.807
			l0.245-0.576v-0.464l0.233-0.295l0.073-0.428l0.587-1.089l0.49-0.711l0.844-0.758l1.04-0.515l0.564-0.098h0.294l0.305-0.16
			l0.453,0.16l0.661,0.098l0.576,0.283l0.514,0.477l0.368,0.281l0.489,0.808l0.147,0.281l0.232,0.404l0.099,0.355l0.085,0.281
			l0.062,0.391l0.281,0.613v0.428l0.086,0.283l0.049,0.379l0.049,0.281l0.049,0.576l0.147,0.843v1.189l-0.049,0.758v0.662
			l-0.098,0.477l-0.049,0.381l-0.098,0.33l-0.049,0.575l-0.135,0.355v0.306l-0.098,0.245l-0.061,0.343l-0.221,0.33l-0.061,0.453
			l-0.22,0.343l-0.318,0.613l-0.355,0.428l-0.134,0.185l-0.478,0.477l-0.282,0.196l-0.281,0.219l-0.478,0.208l-0.343,0.038
			l-0.466,0.196h-0.428l-0.318-0.062l-0.306,0.073l-0.563-0.158L800.465,126.967z M801.848,124.483l0.514-0.121l0.159-0.232
			l0.343-0.196l0.135-0.393l0.196-0.268l0.061-0.196l0.098-0.232l0.147-0.625l0.184-0.698v-0.624l0.147-0.428v-1.996l0.049-0.232
			l-0.049-0.245l-0.098-1.372l-0.134-0.428v-0.379l-0.441-1.336l-0.232-0.33l-0.429-0.428h-0.612l-0.38,0.196l-0.098,0.183
			l-0.38,0.379l-0.049,0.198l-0.318,0.647l-0.379,1.457l-0.062,0.649l-0.147,0.219l0.085,0.466l-0.122,0.783v0.808l-0.049,0.257
			l0.098,0.355l0.049,1.126l0.135,0.538v0.515l0.416,0.917l0.404,0.685l0.318,0.232L801.848,124.483z"/>
		<path d="M808.947,127.25h-0.563l-0.367-0.123l-0.111-0.489v-1.432l-0.061-0.343l0.061-0.172v-1.798l-0.061-0.343l0.061-0.234
			v-1.749l-0.061-0.381l0.061-0.196v-1.798l-0.061-0.344l0.061-0.232v-1.798l-0.061-0.344l0.061-0.183v-1.798l-0.061-0.344
			l0.061-0.219v-1.764l0.122-0.245l0.257-0.085h1.236l0.257-0.085l0.354,0.085l0.429,0.049l0.184,0.183l0.245,0.479l0.269,0.33
			l0.391,0.674l0.135,0.33l0.392,0.513l0.33,0.674l0.392,0.587l0.086-0.073l0.086-0.283l0.196-0.196l0.134-0.281l0.22-0.27
			l0.122-0.343l0.184-0.196l0.196-0.379l0.135-0.183l0.196-0.332l0.098-0.147l0.208-0.428l0.208-0.281l0.233-0.344l0.245-0.085
			h1.138l0.208-0.098l0.367,0.098l0.576,0.049l0.184,0.196l-0.062,0.968l0.062,0.306v1.236l-0.062,0.832l0.062,0.306v1.187
			l-0.062,0.832l0.062,0.306v1.236l-0.062,0.807l0.062,0.283v1.223l-0.062,0.832l0.062,0.319v1.223l-0.049,0.796l0.049,0.343v1.187
			l-0.062,0.832l0.062,0.306v0.575l-0.159,0.147l-0.796,0.136h-0.33l-0.429-0.098l-0.44,0.098l-0.331-0.111l-0.122-0.27v-10.721
			l-0.049-0.098l-0.208,0.268l-0.11,0.332l-0.282,0.281l-0.11,0.404l-0.196,0.232l-0.147,0.245l-0.086,0.136l-0.233,0.379h-0.624
			l-1.175,0.062l-0.232-0.123l-0.306-0.551l-0.282-0.428l-0.526-1.04l-0.233-0.245v11.015l-0.478,0.234h-0.465l-0.429-0.098
			L808.947,127.25z"/>
	</g>
	<g>
		<path d="M181.792,131.678l-0.352-15.6l0.152-0.334l0.647-0.076l0.418,0.052l0.314-0.167l0.456,0.15l0.661-0.015l0.614,0.071
			l0.432,0.138l0.317-0.007l1.075,0.404l0.522,0.33l0.765,0.816l0.08,0.279l0.354,0.494l0.191,0.877l0.024,1.102l-0.179,0.763
			l-0.446,0.855l-0.238,0.299l-0.13,0.236l-0.352,0.179l-0.14,0.296l0.384,0.212l0.726,0.692l0.227,0.351l0.254,0.374l0.143,0.375
			l0.179,0.364l0.069,0.353l0.105,0.279l0.008,0.381l0.093,0.377l0.025,1.088l-0.033,0.149l-0.066,0.319l-0.117,0.248l-0.077,0.406
			l-0.328,0.607l-0.227,0.286l-0.095,0.137l-0.693,0.739l-0.279,0.141l-0.348,0.312l-0.314,0.13l-0.375,0.204l-0.28,0.092
			l-0.23,0.102l-0.194,0.054l-0.278,0.152l-0.197,0.005l-0.558,0.147l-0.527,0.013l-0.426,0.107l-0.562,0.013l-0.344-0.054
			l-0.329,0.082l-0.382-0.114L181.792,131.678z M184.119,121.38l0.196-0.005l0.277-0.153l0.279-0.104l0.242-0.165l0.45-0.646
			l0.048-0.051l0.142-0.223l-0.014-0.587l0.045-0.198l-0.003-0.109l-0.253-0.362l-0.558-0.354l-0.442-0.039l-0.234-0.043
			l-0.245,0.005L184.119,121.38z M184.623,129.105l0.341-0.081l0.749-0.469l0.406-0.439l0.27-0.545l0.076-0.443l-0.083-0.439
			l-0.058-0.377l-0.321-0.667l-0.354-0.506l-0.357-0.102l-0.385-0.249l-0.334-0.102l-0.379,0.008l0.1,4.417L184.623,129.105z"/>
		<path d="M191.828,131.513l-0.069-0.341l-0.107-0.353l0.165-0.345l-0.082-0.343l-0.029-1.321l-0.058-0.329l0.103-0.37l-0.069-0.305
			l-0.029-1.319l-0.045-0.392l0.091-0.296l-0.069-0.365l-0.031-1.321l-0.105-0.353l0.129-0.285l-0.232-0.447l-0.103-0.28
			l-0.337-0.788l-0.279-1.01l-0.297-0.703l-0.129-0.242l-0.094-0.401l-0.363-0.874l-0.12-0.413l-0.155-0.364l-0.357-1.192
			l-0.348-0.762l-0.01-0.417l0.192-0.188l1.04-0.024l0.72-0.089l0.529,0.074l0.21,0.092l0.118,0.316l0.067,0.267l0.205,0.448
			l0.08,0.268l0.167,0.388l0.082,0.316l0.154,0.327l0.058,0.403l0.346,0.641l0.131,0.364l0.141-0.236l0.053-0.381l0.266-0.667
			l0.179-0.763l0.266-0.62l0.04-0.428l0.178-0.248l0.053-0.381l0.132-0.139l1.196-0.137l0.747,0.044l0.478-0.01l0.225,0.215
			l-0.073,0.589l-0.152,0.323l-0.25,0.875l-0.308,0.951l-0.091,0.332l-0.131,0.211l-0.036,0.503l-0.225,0.36l-0.236,0.947
			l-0.161,0.469l-0.228,0.716l-0.174,0.431l-0.042,0.381l-0.279,0.594l-0.069,0.785l0.169,7.5l-0.239,0.238l-0.379,0.008
			l-0.39,0.083l-1.544-0.04L191.828,131.513z"/>
		<path d="M204.858,131.135l-0.027-1.185l-0.056-0.343l0.029-0.845l-0.027-1.187l-0.067-0.293l0.042-0.846l-0.027-1.187
			l-0.056-0.341l0.031-0.798l-0.027-1.234l-0.067-0.293l0.042-0.846l-0.027-1.176l-0.056-0.341l0.031-0.796l-0.029-1.285
			l-0.105-0.328l-0.564,0.013l-0.332-0.054l-0.426,0.071l-0.576-0.061l-0.341,0.119l-0.469-0.15l-0.089-0.169l-0.004-2.337
			l0.145-0.077l1.098-0.122l0.651,0.034l0.613-0.014l0.294,0.042l0.462-0.108l0.43-0.01l0.527,0.037l0.66-0.015l0.283,0.044
			l0.475-0.109l0.379-0.009l0.576,0.036l0.613-0.014l0.283,0.043l0.243-0.054l0.564-0.013l0.199,0.179l0.053,2.325l-0.192,0.201
			l-0.477,0.011l-0.134,0.052l-0.807,0.018l-0.332-0.053l-0.451,0.071l-0.455-0.051l0.038,1.677l-0.045,0.208l0.111,2.141
			l-0.056,0.234l0.109,2.09l-0.056,0.235l0.109,2.129l-0.056,0.233l0.109,2.091l-0.056,0.234l0.107,2.066l-0.116,0.236l-0.315,0.105
			l-1.089,0.025l-0.232,0.054l-0.575,0.013l-0.344-0.079L204.858,131.135z"/>
		<path d="M211.597,130.91l-0.353-15.699l0.121-0.112l0.205-0.079l0.279-0.152l0.381,0.089l1.419-0.032l0.299,0.213l0.08,1.394
			l0.013,0.515l0.054,0.268l-0.043,0.208l0.042,1.847l0.054,0.294l-0.044,0.234l0.045,2.019l0.66-0.089l1.37-0.031l0.321,0.078
			l0.817-0.129l0.031-0.821l-0.058-0.379l0.004-1.994l-0.058-0.379l0.005-1.947l-0.071-0.428l0.058-0.723l0.227-0.237l1.236-0.027
			l0.205-0.103l0.357,0.091l0.381,0.04l0.236,0.118l0.076,1.245l0.332,14.709l-0.239,0.25l-0.89,0.118l-0.283-0.054l-0.992,0.024
			l-0.301-0.276l-0.014-0.662l-0.058-0.377l0.005-1.985l-0.058-0.379l0.005-1.958l-0.056-0.33l-0.018-0.758l-0.515,0.011
			l-0.266,0.067l-0.393-0.052l-1.664,0.037l-0.328,0.092l0.038,1.764l0.067,0.23l-0.056,0.247l0.042,1.847l0.056,0.281l-0.044,0.234
			l0.042,1.896l-0.096,0.101l-0.33,0.007l-0.194,0.053l-0.991,0.022l-0.696,0.077l-0.321-0.151L211.597,130.91z"/>
		<path d="M222.278,131.147l-0.477,0.011l-0.188-0.18l-0.016-0.722l-0.103-1.319l0.053-0.969l-0.105-1.406l0.051-0.968l-0.103-1.345
			l0.051-0.993l-0.103-1.393l0.053-0.932l-0.105-1.381l0.051-0.992l-0.105-1.381l0.053-0.969l-0.071-0.964l0.044-0.259l0.179-0.187
			l1.051-0.024l0.254-0.141l0.408,0.126l1.7-0.038l0.243-0.128l0.478,0.111l1.604-0.036l0.194-0.102l0.183-0.004l0.408,0.187
			l0.08,0.231l0.045,2.043l-0.129,0.285l-1.319,0.091l-0.406-0.052l-1.736,0.088l-0.428,0.01l0.009,0.428l0.054,0.243l-0.031,0.798
			l0.029,1.284l0.054,0.257l-0.047,1.151l0.087,0.624l0.992-0.023l1.223-0.077l0.87,0.043l0.237,0.227l0.018,0.808l0.08,0.304
			l-0.065,0.307l-0.029,0.907l-0.192,0.188l-0.281,0.005l-0.283-0.042l-0.662,0.015l-0.292,0.055l-1.138,0.026l-0.417-0.078
			l0.007,0.332l-0.034,0.71l0.031,1.321l0.054,0.256l-0.042,0.834l0.343-0.007l1.089,0.036l0.232-0.066l1.762-0.04l0.185,0.044
			l0.357,0.065l0.08,0.305l0.045,2.03l-0.214,0.287l-0.524,0.085l-0.493-0.1l-0.232,0.054l-0.953,0.022l-0.66,0.076l-0.283-0.054
			l-1.419,0.031l-0.671,0.076l-0.469-0.099L222.278,131.147z"/>
		<path d="M233.69,130.67l-0.067-0.257l-0.016-0.758l0.044-0.246l-0.118-1.956l0.065-0.37l-0.118-1.943l0.063-0.43l-0.116-1.945
			l0.063-0.381l-0.116-1.943l0.063-0.431l-0.118-1.943l0.065-0.381l-0.118-1.945l0.065-0.406l-0.014-0.623l0.179-0.175l0.672-0.076
			l0.181-0.054l0.808-0.018l1.042,0.074l0.245,0.044l0.382,0.041l0.232,0.032l0.332,0.041l0.408,0.163l0.308,0.066l0.384,0.272
			l0.346,0.103l0.819,0.544l0.709,1.013l0.274,0.753l0.058,0.378l0.149,0.573l0.014,0.66l0.107,0.45l-0.216,0.691l-0.062,0.528
			l-0.161,0.432l-0.223,0.483l-0.114,0.382l-0.324,0.251l-0.067,0.308l-0.277,0.19l-0.201,0.298l-0.265,0.153l-0.372,0.387
			l-1.126,0.601l-0.424,0.157l-0.379,0.046l-0.279,0.152l-0.426,0.059l0.031,1.419l0.071,0.391l-0.078,0.332l0.132,2.066
			l-0.056,0.198l0.031,1.431l-0.082,0.137l-0.292,0.154l-0.709,0.015l-1.249-0.033L233.69,130.67z M236.084,121.776l0.147-0.003
			l0.23-0.151l0.317-0.069l0.58-0.332l0.227-0.238l0.094-0.199l0.25-0.262l0.114-0.358l0.127-0.358l-0.02-0.881l-0.199-0.753
			l-0.154-0.279l-0.526-0.515l-0.582-0.268l-0.709,0.016l-0.094,0.185l0.04,1.762l0.071,0.428l-0.058,0.184l0.045,1.996
			L236.084,121.776z"/>
		<path d="M240.333,130.459l-0.007-0.294l0.217-0.689l0.038-0.492l0.045-0.197l0.044-0.234l0.092-0.246l0.04-0.381l0.123-0.565
			l0.04-0.381l0.138-0.334l0.04-0.429l0.045-0.198l0.031-0.232l0.134-0.579l0.042-0.331l0.17-0.617l0.123-1.043l0.187-0.384
			l-0.011-0.477l0.176-0.383l-0.007-0.281l0.179-0.764l0.029-0.295l0.178-0.811l0.042-0.333l0.094-0.235l0.029-0.283l0.091-0.332
			l0.082-0.724l0.219-0.593l-0.013-0.551l0.141-0.284l0.161-0.996l0.091-0.333l0.096-0.602l0.105-0.223l0.254-0.14l2.081-0.047
			l0.237,0.227l0.125,0.622l0.004,0.183l0.178,0.351l0.236,1.207l0.198,0.621l0.058,0.378l0.105,0.329l0.125,0.657l0.183,0.523
			l0.058,0.377l0.054,0.232l0.058,0.379l0.252,0.901l0.005,0.257l0.169,0.399l0.299,1.316l0.107,0.377l0.203,0.901l0.105,0.33
			l0.058,0.377l0.194,0.437l0.105,0.841l0.326,0.936l-0.056,0.246l0.21,0.56l0.16,0.62l0.094,0.328l0.167,0.89l0.065,0.17
			l-0.08,0.259l-0.303,0.154l-1.383,0.031l-0.332-0.042l-0.381,0.008l-0.161-0.156l-0.188-0.742l-0.103-0.181l-0.009-0.428
			l-0.248-0.68l-0.091-0.819l-0.223-0.62l-0.112-0.671l-0.156-0.413l-2.3,0.053l-0.101,0.382l-0.105,0.785l-0.16,0.531l-0.071,0.675
			l-0.141,0.296l-0.045,0.674l-0.16,0.506l-0.141,0.799l-0.315,0.167l-1.468,0.033l-0.662-0.083L240.333,130.459z M245.482,123.131
			l-0.011-0.428l-0.236-0.681l-0.071-0.401l-0.053-0.195l-0.071-0.44l-0.143-0.327l-0.25,1.352l-0.092,0.283l0.011,0.453
			l-0.178,0.261l0.004,0.147L245.482,123.131z"/>
		<path d="M251.326,130.444l-0.185-0.094l-0.058-0.378l-0.054-0.232l-0.04-1.798l0.056-0.235l-0.067-0.292l-0.042-1.847l0.054-0.234
			l-0.067-0.293l-0.04-1.799l0.056-0.234l-0.069-0.293l-0.042-1.847l0.058-0.186l-0.069-0.292l-0.042-1.848l0.056-0.233l-0.067-0.28
			l-0.042-1.861l0.056-0.198l-0.067-0.267l-0.033-1.456l0.301-0.214l2.166-0.049l0.285,0.14l0.192,0.376l0.19,0.289l0.118,0.315
			l0.538,1.078l0.13,0.34l0.304,0.508l0.285,0.667l0.343,0.519l0.13,0.363l0.45,0.933l0.103,0.242l0.536,1.029l0.156,0.377
			l0.205,0.373l0.13,0.377l0.353,0.518l0.208,0.558l0.192,0.326l0.256,0.471l-0.018-0.807l0.058-0.627l-0.078-0.266l-0.034-1.481
			l0.049-0.588l-0.067-0.257l-0.033-1.468l0.058-0.638l-0.08-0.266l-0.033-1.47l0.047-0.588l-0.082-0.391l0.042-0.869l0.179-0.2
			l2.179-0.049l0.199,0.179l0.071,0.953l0.054,0.279l-0.114,0.382l0.083,0.379l0.029,1.334l0.056,0.316l-0.129,0.273l0.096,0.401
			l0.029,1.334l0.056,0.281l-0.127,0.382l0.092,0.328l0.033,1.383l0.056,0.316l-0.129,0.273l0.094,0.402l0.031,1.334l0.054,0.304
			l-0.127,0.346l0.094,0.39l0.031,1.321l0.067,0.304l-0.14,0.285l0.094,0.413l0.031,1.323l0.056,0.315l-0.092,0.259l0.011,0.489
			l-0.254,0.178l-0.832,0.018l-0.332-0.041l-1.002,0.023l-0.189-0.179l-0.256-0.473l-0.04-0.194l-0.256-0.459l-0.105-0.292
			l-0.294-0.557l-0.053-0.146l-0.294-0.557l-0.105-0.328l-0.692-1.319l-0.129-0.291l-0.277-0.41l-0.143-0.376l-0.538-1.078
			l-0.132-0.39l-0.419-0.676l-0.246-0.631l-0.513-0.968L253.528,120l-0.167,0.726l0.091,0.795l0.014,0.672l0.069,0.28l-0.109,0.626
			l0.08,0.794l0.014,0.662l0.067,0.256l-0.109,0.663l0.078,0.745l0.016,0.662l0.067,0.292l-0.109,0.626l0.078,0.746l0.016,0.709
			l0.08,0.256l-0.067,0.27l-0.042,0.357l-0.129,0.26l-0.575,0.062l-0.381-0.041L251.326,130.444z"/>
		<path d="M262.37,129.864l-0.011-0.477l-0.058-0.414l0.005-1.873l-0.058-0.452l0.007-1.861l-0.062-0.513l0.007-1.849l-0.06-0.514
			l0.007-1.824l-0.06-0.512l0.007-1.861l-0.06-0.452l0.007-1.873l-0.074-0.55l0.056-0.771l0.216-0.237l6.264-0.141l0.214,0.203
			l0.13,0.353l0.04,1.811l-0.145,0.137l-0.165,0.25l-0.208,0.005l-0.234-0.043l-1.419,0.032l-0.634,0.075l-0.319-0.053l-0.943,0.021
			l0.027,1.187l0.107,0.449l-0.089,0.407l0.034,1.518l0.107,0.39l-0.043,0.27l0.013,0.563l0.992-0.023l0.295,0.055l1.062-0.11
			l0.774,0.056l0.199,0.19l0.013,0.564l0.062,0.573l0.022,0.942l-0.21,0.434l-3.147,0.071l-0.045,0.686l0.12,0.426l-0.085,0.504
			l0.033,1.517l0.091,0.182l0.098-0.003l0.382,0.09l1.713-0.039l0.23-0.115l0.478,0.1l0.857-0.019l0.237,0.239l0.004,0.184
			l-0.067,0.222l0.083,0.439l-0.013,1.603l-1.638,0.099l-1.079-0.025l-1.773,0.114l-0.527-0.062l-1.37,0.08l-0.321-0.14
			L262.37,129.864z"/>
		<path d="M270.532,129.693l-0.016-0.71l-0.083-0.39l0.069-0.234l-0.038-1.701l-0.083-0.44l0.069-0.221l-0.04-1.713l-0.082-0.379
			l0.069-0.233l-0.04-1.714l-0.081-0.439l0.067-0.221l-0.038-1.714l-0.083-0.403l0.069-0.208l-0.04-1.762l-0.082-0.379l0.069-0.233
			l-0.038-1.702l-0.083-0.391l0.069-0.232l0.038-0.455l0.328-0.167l1.945-0.043l0.357,0.102l0.13,0.364l0.297,13.178l0.33-0.007
			l0.218-0.114l0.444,0.1l1.664-0.038l0.23-0.127l0.431,0.112l0.428-0.01l0.236,0.106l0.109,1.088l-0.072,0.515l0.018,0.819
			l-0.254,0.178l-6.241,0.141l-0.21-0.105L270.532,129.693z"/>
		<path d="M281.49,129.801l-0.408-0.112l-0.553-0.147l-0.73-0.352l-1.013-0.968l-0.578-1.236l-0.083-0.413l-0.183-0.511
			l-0.085-1.098l-0.145-0.439l0.167-0.223l0.141-0.225l1.283-0.102l1.04,0.037l0.288,0.275l0.031,1.369l0.105,0.279l0.145,0.462
			l0.303,0.434l0.312,0.202l0.406,0.161l0.283-0.005l0.194-0.103l0.379-0.008l0.502-0.526l0.14-0.296l-0.016-0.796l-0.056-0.244
			l-0.007-0.33l-0.344-0.653l-0.546-0.821l-0.435-0.295l-0.513-0.504l-0.446-0.235l-0.384-0.237l-0.459-0.209l-1.122-0.893
			l-0.868-1.07l-0.437-0.884l-0.136-0.622l-0.062-0.562l-0.147-0.486l0.129-0.272l-0.013-0.576l0.411-1.355l0.535-0.71l0.419-0.425
			l0.518-0.306l0.399-0.277l1.378-0.264l1.006,0.051l0.147,0.046l0.665,0.18l0.68,0.316l1.015,0.979l0.678,1.32l0.234,1.635
			l-0.085,0.578l-0.513,0.11l-1.138,0.025l-0.281-0.043l-0.478,0.011l-0.187-0.179l-0.091-0.732l-0.134-0.488l-0.341-0.531
			l-0.39-0.37l-0.285-0.141l-0.624,0.015l-0.227,0.25l-0.303,0.154l-0.069,0.234l-0.219,0.556l0.018,0.781l0.546,0.919l0.973,0.799
			l0.272,0.128l0.435,0.235l0.482,0.223l0.959,0.688l0.687,0.646l0.631,0.793l0.292,0.471l0.152,0.217l0.199,0.682l0.232,1.133
			l-0.053,0.357l0.082,0.364l-0.152,1.375l-0.21,0.47l-0.053,0.332l-0.216,0.286l-0.212,0.373l-0.573,0.599l-0.29,0.191
			l-0.305,0.092l-0.299,0.253l-0.428,0.059l-0.754,0.212l-0.43,0.011l-0.283-0.043L281.49,129.801z"/>
		<path d="M291.447,129.369l-0.067-0.256l-0.018-0.758l0.044-0.246l-0.118-1.956l0.065-0.37l-0.116-1.943l0.063-0.431l-0.118-1.943
			l0.065-0.381l-0.118-1.945l0.063-0.43l-0.116-1.943l0.065-0.382l-0.118-1.943l0.063-0.406l-0.013-0.624l0.179-0.176l0.671-0.076
			l0.183-0.053l0.807-0.018l1.042,0.074l0.246,0.044l0.381,0.04l0.234,0.031l0.332,0.042l0.408,0.163l0.306,0.067l0.386,0.272
			l0.344,0.102l0.821,0.545l0.709,1.011l0.274,0.754l0.058,0.378l0.147,0.572l0.015,0.66l0.109,0.451l-0.218,0.691l-0.062,0.528
			l-0.161,0.432l-0.221,0.483l-0.114,0.382l-0.326,0.251l-0.065,0.308l-0.277,0.19l-0.201,0.298l-0.266,0.153l-0.372,0.387
			l-1.124,0.602l-0.426,0.156l-0.379,0.045l-0.277,0.154l-0.428,0.058l0.033,1.419l0.071,0.39l-0.08,0.333l0.132,2.067l-0.056,0.198
			l0.033,1.43l-0.083,0.138l-0.29,0.152l-0.709,0.016l-1.251-0.033L291.447,129.369z M293.841,120.477l0.147-0.004l0.228-0.152
			l0.317-0.069l0.58-0.331l0.227-0.238l0.094-0.198l0.252-0.263l0.114-0.357l0.127-0.359l-0.02-0.881l-0.201-0.754l-0.154-0.278
			l-0.524-0.515l-0.582-0.268l-0.71,0.016l-0.094,0.186l0.04,1.762l0.071,0.426l-0.056,0.185l0.045,1.996L293.841,120.477z"/>
		<path d="M300.923,129.413l-0.834-0.091l-0.236-0.633l0.14-0.346l-0.085-0.511l-0.029-1.272l-0.054-0.245l0.103-0.344l-0.072-0.464
			l-0.029-1.272l-0.054-0.243l0.114-0.37l-0.083-0.439l-0.029-1.323l-0.054-0.243l0.103-0.333l-0.072-0.463l-0.029-1.285
			l-0.054-0.268l0.114-0.321l-0.083-0.5l-0.029-1.285l-0.054-0.219l0.102-0.357l-0.071-0.464l-0.029-1.285l-0.056-0.268l0.116-0.308
			l-0.112-0.633l0.102-0.419l0.339-0.179l0.99-0.023l0.308,0.053l0.326-0.179l0.321,0.104l1.091,0.036l0.43,0.076l0.283,0.078
			l0.527-0.011l1.336,0.642l1.064,1.018l0.092,0.304l0.279,0.411l0.395,1.29l0.027,1.198l-0.083,1.178l-0.221,0.544l-0.158,0.604
			l-0.471,0.781l-0.227,0.299l-0.178,0.236l-0.241,0.19l-0.323,0.301l-0.243,0.14l-0.314,0.228l-0.593,0.257l0.546,0.919l0.13,0.303
			l0.674,1.11l0.078,0.218l0.533,0.895l0.156,0.375l0.381,0.556l0.486,0.931l0.265,0.373l0.158,0.45l-0.263,0.276l-1.088,0.122
			l-0.442-0.1l-0.219,0.053l-0.466,0.011l-0.37-0.114l-0.43-0.604l-0.08-0.304l-0.691-1.27l-0.154-0.364l-0.392-0.506l-0.449-0.908
			l-0.31-0.74l-0.083,0.087l0.103,4.566l-0.399,0.278l-0.355,0.008l-0.381-0.09L300.923,129.413z M302.349,120.408l1.049-0.111
			l0.143-0.15l0.473-0.206l0.323-0.338l0.15-0.382l0.154-0.224l0.094-0.186l-0.034-1.519l-0.207-0.471l-0.103-0.292l-0.103-0.206
			l-0.586-0.416l-0.899-0.248l-0.609,0.074l0.098,4.406L302.349,120.408z"/>
		<path d="M311.977,128.845l-0.518-0.16l-0.622-0.44l-0.777-0.827l-0.406-0.664l-0.103-0.23l-0.243-0.472l-0.007-0.281l-0.326-0.9
			l-0.083-0.462l-0.013-0.526l-0.051-0.147l-0.125-1.185l-0.043-1.896l0.043-0.284l-0.018-0.807l0.091-0.285l0.038-0.478
			l0.033-0.234l0.08-0.809l0.23-0.582l-0.009-0.464l0.225-0.299l0.063-0.43l0.564-1.102l0.473-0.721l0.828-0.778l1.028-0.536
			l0.56-0.111l0.296-0.007l0.301-0.167l0.457,0.15l0.663,0.082l0.58,0.269l0.526,0.464l0.373,0.274l0.508,0.796l0.154,0.279
			l0.241,0.399l0.105,0.353l0.092,0.28l0.071,0.39l0.294,0.605l0.011,0.428l0.091,0.28l0.058,0.378l0.056,0.281l0.062,0.575
			l0.167,0.839l0.025,1.187l-0.031,0.76l0.014,0.661l-0.087,0.48l-0.04,0.381l-0.092,0.332l-0.034,0.576l-0.127,0.357l0.007,0.306
			l-0.092,0.246l-0.054,0.344l-0.212,0.335l-0.051,0.455l-0.212,0.347l-0.306,0.619l-0.344,0.437l-0.131,0.187l-0.466,0.487
			l-0.277,0.202l-0.277,0.227l-0.471,0.219l-0.343,0.045l-0.46,0.206l-0.428,0.01l-0.321-0.054l-0.304,0.08l-0.566-0.146
			L311.977,128.845z M313.304,126.33l0.511-0.134l0.154-0.236l0.337-0.204l0.127-0.395l0.19-0.274l0.056-0.197l0.092-0.235
			l0.132-0.627l0.169-0.701l-0.014-0.624l0.138-0.43l-0.045-1.996l0.044-0.232l-0.054-0.245l-0.129-1.368l-0.143-0.426l-0.009-0.379
			l-0.471-1.323l-0.239-0.325l-0.439-0.42l-0.611,0.014l-0.375,0.205l-0.094,0.185l-0.37,0.388l-0.045,0.198l-0.304,0.654
			l-0.346,1.465l-0.045,0.651l-0.143,0.224l0.096,0.463l-0.103,0.786l0.018,0.807l-0.043,0.258l0.105,0.353l0.074,1.126l0.147,0.535
			l0.013,0.514l0.435,0.907l0.421,0.678l0.323,0.225L313.304,126.33z"/>
		<path d="M321.46,128.68l-0.478-0.111l-0.709-0.498l-0.304-0.409l-0.362-0.396l-0.433-1.289l-0.058-0.378l-0.158-0.499
			l-0.022-0.917l0.143-0.15l1.568-0.035l0.181-0.053l0.526-0.013l0.152,0.155l0.092,0.316l0.102,0.709l0.118,0.328l0.243,0.471
			l0.288,0.276l0.624-0.014l0.227-0.237l0.056-0.234l0.212-0.347l0.089-0.479l0.08-0.259l0.12-1.165l0.045-0.234l-0.014-0.575
			l0.029-0.895l-0.06-2.655l-0.067-0.856l-0.047-2.092l-0.056-0.33l-0.015-0.611l-0.074-1.077l0.043-0.308l-0.056-0.279
			l-0.016-0.759l0.129-0.26l0.292-0.08l1.138-0.025l0.205-0.115l0.765,0.203l0.089,0.169l0.069,0.904l0.054,0.268l-0.042,0.808
			l0.078,1.332l0.058,0.379l-0.056,0.785l0.103,1.309l0.049,2.177l0.071,0.415l-0.049,0.54l0.042,1.896l-0.121,0.566l0.009,0.354
			l-0.172,1.082l-0.092,0.234l-0.038,0.466l-0.179,0.25l-0.065,0.355l-0.377,0.671l-0.334,0.41l-0.179,0.151l-0.288,0.288
			l-0.277,0.153l-0.181,0.126l-0.413,0.096l-0.207,0.102l-0.426,0.119l-0.504-0.086l-0.315,0.093l-0.517-0.123L321.46,128.68z"/>
		<path d="M328.527,128.755l-0.477,0.011l-0.189-0.179l-0.016-0.723l-0.103-1.318l0.053-0.97l-0.105-1.405l0.051-0.968l-0.103-1.345
			l0.051-0.993l-0.105-1.394l0.053-0.932l-0.103-1.381l0.051-0.991l-0.105-1.381l0.053-0.97l-0.071-0.964l0.042-0.259l0.179-0.187
			l1.053-0.024l0.254-0.141l0.406,0.127l1.702-0.039l0.241-0.128l0.48,0.112l1.602-0.035l0.194-0.103l0.183-0.004l0.41,0.187
			l0.078,0.231l0.047,2.043l-0.129,0.285l-1.321,0.091l-0.404-0.053l-1.736,0.089l-0.43,0.009l0.011,0.428l0.054,0.244l-0.031,0.797
			l0.029,1.284l0.054,0.257l-0.047,1.151l0.087,0.624l0.991-0.022l1.222-0.077l0.87,0.043l0.237,0.227l0.018,0.807l0.082,0.305
			l-0.067,0.308l-0.029,0.906l-0.19,0.188l-0.281,0.005l-0.285-0.042l-0.66,0.014l-0.294,0.056l-1.136,0.025l-0.419-0.077
			l0.007,0.331l-0.033,0.71l0.029,1.321l0.056,0.257l-0.043,0.833l0.342-0.007l1.091,0.036l0.23-0.066l1.762-0.039l0.185,0.044
			l0.357,0.065l0.08,0.304l0.047,2.03l-0.216,0.287l-0.524,0.085l-0.491-0.099l-0.232,0.053l-0.955,0.022l-0.658,0.076l-0.283-0.054
			l-1.419,0.032l-0.672,0.075l-0.468-0.098L328.527,128.755z"/>
		<path d="M338.134,128.036l-0.807-0.484l-0.341-0.445l-0.857-1.07l-0.13-0.34l-0.243-0.509l-0.484-1.409l-0.178-0.803l-0.056-0.33
			l-0.105-0.291l-0.009-0.428l-0.058-0.33l-0.04-1.847l0.234-2.088l0.14-0.296l0.062-0.541l0.243-0.604l0.091-0.382l0.221-0.482
			l0.188-0.334l0.268-0.57l0.513-0.636l0.13-0.187l0.466-0.488l0.277-0.19l0.566-0.465l0.426-0.131l0.703-0.249l0.661-0.015
			l0.401-0.143l0.457,0.174l0.663,0.071l0.482,0.185l0.208,0.069l0.174,0.156l0.011,0.426l-0.257,0.546l-0.076,0.406l-0.21,0.445
			l-0.042,0.32l-0.178,0.248l-0.13,0.199l-0.147,0.004l-0.643-0.304l-0.589-0.06l-0.437,0.157l-0.268,0.079l-0.178,0.298
			l-0.339,0.13l-0.14,0.384l-0.276,0.189l-0.063,0.441l-0.275,0.288l-0.247,1.083l-0.183,0.567l-0.034,0.625l-0.033,0.136
			l-0.071,1.238l0.038,1.664l0.147,0.56l0.058,0.428l0.053,0.145l0.21,0.656l0.308,0.593l0.779,0.937l0.397,0.176l0.661,0.058
			l1.149-0.602l0.257-0.005l0.381,0.604l0.196,0.498l0.328,0.433l0.065,0.194l0.167,0.389l-0.082,0.184l-0.216,0.14l-0.431,0.402
			l-0.424,0.229l-0.622,0.137l-0.399,0.205l-0.431-0.076l-0.364,0.107l-0.725-0.107L338.134,128.036z"/>
		<path d="M346.666,127.943l-0.027-1.187l-0.056-0.341l0.029-0.846l-0.027-1.187l-0.067-0.292l0.042-0.845l-0.027-1.187
			l-0.056-0.343l0.031-0.796l-0.027-1.236l-0.067-0.292l0.042-0.846l-0.027-1.175l-0.056-0.343l0.031-0.796l-0.029-1.285
			l-0.105-0.328l-0.562,0.013l-0.332-0.053l-0.428,0.072l-0.576-0.062l-0.341,0.118l-0.468-0.149l-0.091-0.169l-0.004-2.337
			l0.145-0.077l1.098-0.122l0.651,0.034l0.613-0.014l0.294,0.043l0.462-0.108l0.43-0.01l0.527,0.037l0.66-0.015l0.283,0.042
			l0.475-0.109l0.381-0.008l0.575,0.036l0.613-0.014l0.283,0.043l0.243-0.055l0.564-0.013l0.199,0.179l0.053,2.325l-0.192,0.2
			l-0.477,0.011l-0.132,0.053l-0.808,0.018l-0.332-0.054l-0.451,0.072l-0.455-0.053l0.038,1.677l-0.043,0.209l0.109,2.14
			l-0.056,0.235l0.109,2.091l-0.056,0.234l0.109,2.128l-0.056,0.234l0.109,2.092l-0.056,0.233l0.109,2.067l-0.118,0.236
			l-0.315,0.105l-1.089,0.024l-0.232,0.054l-0.575,0.013l-0.344-0.078L346.666,127.943z"/>
	</g>
</g>
</svg>
